# xmcd
#
# Track frame offsets:
#	150
#	18481
#	33624
#	53325
#	68357
#	91355
#	110294
#	121064
#
# Disc length: 1861 seconds
#
# Revision: 1
# Processed by: cddbd v1.5.2PL0 Copyright (c) Steve Scherf et al.
# Submitted via: audiograbber 1.83.01
#
DISCID=56074308
DTITLE=Brett Williams - It´s Just A Song Brett Williams
DYEAR=1900
DGENRE=
TTITLE0=Shadow On Your Shoulder
TTITLE1=Cigarettes And Beer
TTITLE2=High And Dry
TTITLE3=Move Mony
TTITLE4=Bourbon Street
TTITLE5=It´s A Sin
TTITLE6=It´s Just A Song
TTITLE7=Rolling Down The Road
EXTD=
EXTT0=
EXTT1=
EXTT2=
EXTT3=
EXTT4=
EXTT5=
EXTT6=
EXTT7=
PLAYORDER=
